<?xml version="1.0" encoding="iso-8859-1"?>
<!-- Generator: Adobe Illustrator 19.0.0, SVG Export Plug-In . SVG Version: 6.00 Build 0)  -->
<svg version="1.1" id="Capa_1" xmlns="http://www.w3.org/2000/svg" xmlns:xlink="http://www.w3.org/1999/xlink" x="0px" y="0px"
	 viewBox="0 0 512 512" style="enable-background:new 0 0 512 512;" xml:space="preserve">
<g>
	<g>
		<path d="M511.061,368.939l-97.813-218.027c-2.411-5.376-8.747-7.787-14.101-5.355c-5.376,2.411-7.765,8.725-5.355,14.101
			l96.875,215.957v22.251L361.195,175.936c-3.819-6.571-14.613-6.571-18.411,0l-43.477,74.56c-2.965,5.099-1.237,11.627,3.84,14.592
			c5.056,2.944,11.605,1.259,14.592-3.84L352,202.496l140.117,240.213c1.941,3.328,5.483,5.291,9.216,5.291
			c0.917,0,1.856-0.107,2.795-0.363c4.651-1.259,7.872-5.483,7.872-10.304v-64C512,371.84,511.68,370.347,511.061,368.939z"/>
	</g>
</g>
<g>
	<g>
		<path d="M305.451,146.347c-5.312-2.411-11.691-0.043-14.101,5.333l-35.541,78.485c-2.432,5.376-0.064,11.691,5.312,14.123
			c1.408,0.64,2.923,0.939,4.395,0.939c4.075,0,7.936-2.325,9.707-6.272l35.541-78.485
			C313.195,155.093,310.827,148.779,305.451,146.347z"/>
	</g>
</g>
<g>
	<g>
		<path d="M352,0c-5.888,0-10.667,4.779-10.667,10.667v42.667C341.333,59.221,346.112,64,352,64c5.888,0,10.667-4.779,10.667-10.667
			V10.667C362.667,4.779,357.888,0,352,0z"/>
	</g>
</g>
<g>
	<g>
		<path d="M394.667,405.333h-32.363C356.821,322.069,287.296,256,202.667,256S48.533,322.069,43.029,405.333H10.667
			C4.779,405.333,0,410.112,0,416v85.333C0,507.221,4.779,512,10.667,512h384c5.888,0,10.667-4.779,10.667-10.667V416
			C405.333,410.112,400.555,405.333,394.667,405.333z M384,490.667H21.333v-64h32C59.221,426.667,64,421.888,64,416
			c0-76.459,62.208-138.667,138.667-138.667S341.333,339.541,341.333,416c0,5.888,4.779,10.667,10.667,10.667h32V490.667z"/>
	</g>
</g>
<g>
	<g>
		<path d="M202.667,341.333C161.493,341.333,128,374.827,128,416c0,5.888,4.779,10.667,10.667,10.667h128
			c5.888,0,10.667-4.779,10.667-10.667C277.333,374.827,243.84,341.333,202.667,341.333z M150.4,405.333
			c4.949-24.32,26.517-42.667,52.267-42.667s47.317,18.347,52.267,42.667H150.4z"/>
	</g>
</g>
<g>
	<g>
		<path d="M352,42.667c-41.173,0-74.667,33.493-74.667,74.667C277.333,158.507,310.827,192,352,192s74.667-33.493,74.667-74.667
			S393.173,42.667,352,42.667z M352,170.667c-29.419,0-53.333-23.936-53.333-53.333C298.667,87.936,322.581,64,352,64
			c29.419,0,53.333,23.936,53.333,53.333C405.333,146.731,381.419,170.667,352,170.667z"/>
	</g>
</g>
<g>
	<g>
		<path d="M352,96c-11.776,0-21.333,9.579-21.333,21.333c0,11.755,9.557,21.333,21.333,21.333s21.333-9.579,21.333-21.333
			C373.333,105.579,363.776,96,352,96z"/>
	</g>
</g>
<g>
	<g>
		<path d="M352,448c-5.888,0-10.667,4.779-10.667,10.667v32H320V480c0-5.888-4.779-10.667-10.667-10.667
			s-10.667,4.779-10.667,10.667v10.667h-21.333V480c0-5.888-4.779-10.667-10.667-10.667S256,474.112,256,480v10.667h-21.333v-32
			c0-5.888-4.779-10.667-10.667-10.667s-10.667,4.779-10.667,10.667v32H192V480c0-5.888-4.779-10.667-10.667-10.667
			s-10.667,4.779-10.667,10.667v10.667h-21.333V480c0-5.888-4.779-10.667-10.667-10.667S128,474.112,128,480v10.667h-21.333v-32
			c0-5.888-4.779-10.667-10.667-10.667s-10.667,4.779-10.667,10.667v32H64V480c0-5.888-4.779-10.667-10.667-10.667
			S42.667,474.112,42.667,480v21.333c0,5.888,4.779,10.667,10.667,10.667H352c5.888,0,10.667-4.779,10.667-10.667v-42.667
			C362.667,452.779,357.888,448,352,448z"/>
	</g>
</g>
<g>
</g>
<g>
</g>
<g>
</g>
<g>
</g>
<g>
</g>
<g>
</g>
<g>
</g>
<g>
</g>
<g>
</g>
<g>
</g>
<g>
</g>
<g>
</g>
<g>
</g>
<g>
</g>
<g>
</g>
</svg>
