<?xml version="1.0" encoding="iso-8859-1"?>
<!-- Generator: Adobe Illustrator 19.0.0, SVG Export Plug-In . SVG Version: 6.00 Build 0)  -->
<svg version="1.1" id="Capa_1" xmlns="http://www.w3.org/2000/svg" xmlns:xlink="http://www.w3.org/1999/xlink" x="0px" y="0px"
	 viewBox="0 0 512.021 512.021" style="enable-background:new 0 0 512.021 512.021;" xml:space="preserve">
<g>
	<g>
		<path d="M309.333,300.004c-5.888,0-10.667,4.779-10.667,10.667v180.011H21.333v-32c0-5.888-4.779-10.667-10.667-10.667
			S0,452.793,0,458.681v42.667c0,5.888,4.779,10.667,10.667,10.667h298.667c5.888,0,10.667-4.779,10.667-10.667V310.671
			C320,304.783,315.221,300.004,309.333,300.004z"/>
	</g>
</g>
<g>
	<g>
		<path d="M201.344,192.015H10.667C4.779,192.015,0,196.793,0,202.681v192c0,5.888,4.779,10.667,10.667,10.667
			s10.667-4.779,10.667-10.667V213.348h180.011c5.888,0,10.667-4.779,10.667-10.667S207.232,192.015,201.344,192.015z"/>
	</g>
</g>
<g>
	<g>
		<path d="M502.677,43.193L468.843,9.359c-12.48-12.48-32.789-12.459-45.248,0L241.984,190.969
			c-4.117,4.096-7.019,9.237-8.427,14.869l-19.904,79.595c-0.917,3.648,0.149,7.488,2.795,10.133
			c2.027,2.005,4.757,3.115,7.552,3.115c0.875,0,1.728-0.107,2.603-0.299l79.595-19.904c5.632-1.408,10.773-4.331,14.869-8.427
			L502.677,88.441C515.136,75.983,515.136,55.673,502.677,43.193z M487.552,73.337L305.941,254.948
			c-1.365,1.365-3.072,2.347-4.949,2.816l-62.357,15.595l15.595-62.357c0.469-1.856,1.451-3.584,2.816-4.949L438.656,24.441
			c2.091-2.069,4.821-3.115,7.552-3.115s5.461,1.024,7.531,3.115l33.813,33.813C491.712,62.415,491.712,69.177,487.552,73.337z"/>
	</g>
</g>
<g>
	<g>
		<path d="M316.288,258.553l-62.827-62.805c-4.16-4.16-10.923-4.16-15.083,0c-4.16,4.16-4.16,10.923,0,15.083l62.827,62.805
			c2.091,2.069,4.821,3.115,7.552,3.115c2.731,0,5.461-1.045,7.531-3.115C320.448,269.476,320.448,262.713,316.288,258.553z"/>
	</g>
</g>
<g>
	<g>
		<path d="M160,192.015c-5.888,0-10.667,4.779-10.667,10.667v149.333c0,5.888,4.779,10.667,10.667,10.667
			s10.667-4.779,10.667-10.667V202.681C170.667,196.793,165.888,192.015,160,192.015z"/>
	</g>
</g>
<g>
	<g>
		<path d="M53.333,341.348H10.667C4.779,341.348,0,346.127,0,352.015c0,5.888,4.779,10.667,10.667,10.667h42.667
			c5.888,0,10.667-4.779,10.667-10.667C64,346.127,59.221,341.348,53.333,341.348z"/>
	</g>
</g>
<g>
	<g>
		<path d="M202.667,341.348h-85.333c-5.888,0-10.667,4.779-10.667,10.667c0,5.888,4.779,10.667,10.667,10.667h85.333
			c5.888,0,10.667-4.779,10.667-10.667C213.333,346.127,208.555,341.348,202.667,341.348z"/>
	</g>
</g>
<g>
	<g>
		<path d="M309.333,341.348h-42.667c-5.888,0-10.667,4.779-10.667,10.667c0,5.888,4.779,10.667,10.667,10.667h42.667
			c5.888,0,10.667-4.779,10.667-10.667C320,346.127,315.221,341.348,309.333,341.348z"/>
	</g>
</g>
<g>
	<g>
		<path d="M160,448.015c-5.888,0-10.667,4.779-10.667,10.667v42.667c0,5.888,4.779,10.667,10.667,10.667s10.667-4.779,10.667-10.667
			v-42.667C170.667,452.793,165.888,448.015,160,448.015z"/>
	</g>
</g>
<g>
	<g>
		<path d="M160,341.348c-5.888,0-10.667,4.779-10.667,10.667v42.667c0,5.888,4.779,10.667,10.667,10.667s10.667-4.779,10.667-10.667
			v-42.667C170.667,346.127,165.888,341.348,160,341.348z"/>
	</g>
</g>
<g>
</g>
<g>
</g>
<g>
</g>
<g>
</g>
<g>
</g>
<g>
</g>
<g>
</g>
<g>
</g>
<g>
</g>
<g>
</g>
<g>
</g>
<g>
</g>
<g>
</g>
<g>
</g>
<g>
</g>
</svg>
